<?xml version="1.0" encoding="utf-8"?>
<!-- Generator: Adobe Illustrator 26.0.3, SVG Export Plug-In . SVG Version: 6.00 Build 0)  -->
<svg version="1.1" xmlns="http://www.w3.org/2000/svg" xmlns:xlink="http://www.w3.org/1999/xlink" x="0px" y="0px"
	 viewBox="0 0 361.2 106.2" style="enable-background:new 0 0 361.2 106.2;" xml:space="preserve">
<style type="text/css">
	.st0{display:none;fill:#69686A;}
	.st1{display:none;fill:url(#SVGID_1_);}
	.st2{fill:#69686A;}
	.st3{fill:#8EC047;}
	.st4{fill:url(#SVGID_00000027600556428683132130000013615814162430407817_);}
	.st5{fill:none;stroke:#69686A;stroke-width:2;}
</style>
<g id="Layer_2">
	<path class="st0" d="M578.7,28.5c-12.7,0-23,10.3-23,23c0,12.7,10.3,23,23,23c12.7,0,23-10.3,23-23
		C601.7,38.8,591.5,28.5,578.7,28.5z M578.7,67.1c-8.6,0-15.6-7-15.6-15.6c0-8.6,7-15.6,15.6-15.6c8.6,0,15.6,7,15.6,15.6
		C594.4,60.1,587.4,67.1,578.7,67.1z"/>
</g>
<g id="Layer_1">
	
		<linearGradient id="SVGID_1_" gradientUnits="userSpaceOnUse" x1="198.2048" y1="506.943" x2="191.5411" y2="522.4662" gradientTransform="matrix(0.8686 -0.2603 0.4954 0.4257 174.3565 -112.943)">
		<stop  offset="0" style="stop-color:#FEFEFF"/>
		<stop  offset="1" style="stop-color:#FEFEFF;stop-opacity:0"/>
	</linearGradient>
	<polygon class="st1" points="606.5,59.9 590.6,60.2 590.4,49.6 606.3,49.3 	"/>
</g>
<g id="Layer_3">
	<path class="st2" d="M31.8,64.7c-1.6-1.1-3.1-2.5-4.2-4.2l-6.4,3.7c1.8,2.8,4.1,5.1,6.9,6.9L31.8,64.7z"/>
	<path class="st2" d="M39.7,67.4c-2.1-0.1-4.1-0.6-5.9-1.5L30,72.2c2.9,1.5,6.2,2.4,9.6,2.5L39.7,67.4z"/>
	<path class="st3" d="M53.7,60.3c-2.7,4.2-6.7,6.6-12.2,7.1l0,7.4c0.1,0,0,0,0.1,0c8.3,0,14.7-4.4,18.7-11L53.7,60.3z"/>
	<g>
		
			<linearGradient id="SVGID_00000098931166714385203070000012887740518118644355_" gradientUnits="userSpaceOnUse" x1="60.5958" y1="63.7069" x2="59.3154" y2="49.0721">
			<stop  offset="0.1971" style="stop-color:#69686A"/>
			<stop  offset="0.26" style="stop-color:#706E70;stop-opacity:0.8783"/>
			<stop  offset="0.3577" style="stop-color:#848082;stop-opacity:0.6891"/>
			<stop  offset="0.4781" style="stop-color:#A4A0A1;stop-opacity:0.4561"/>
			<stop  offset="0.6152" style="stop-color:#D4D1D3;stop-opacity:0.1906"/>
			<stop  offset="0.7137" style="stop-color:#FEFEFF;stop-opacity:0"/>
		</linearGradient>
		<path style="fill:url(#SVGID_00000098931166714385203070000012887740518118644355_);" d="M64.6,48.7c0,0.5,0.1,1.1,0.1,1.7
			c0,4.4-1.2,8.5-3.4,12l-6.5-3.5c1.6-2.4,2.5-5.3,2.5-8.5c0-0.5,0-1.1-0.1-1.6L64.6,48.7z"/>
	</g>
	<g>
		<path class="st2" d="M25,50.7c0.1-2,0.7-4,1.5-5.7l-6.4-3.7c-1.5,2.8-2.4,6-2.5,9.4L25,50.7z"/>
		<path class="st2" d="M17.6,52.9c0.2,3.4,1,6.6,2.5,9.4l6.4-3.7c-0.8-1.7-1.4-3.7-1.5-5.7L17.6,52.9z"/>
	</g>
	<path class="st2" d="M99.3,74.3l-2.4-7.2H82.4l-2.5,7.2h-8.3l14.8-40.7h6.2l14.9,40.7H99.3z M89.8,45.6l-5.1,14.8h10.1L89.8,45.6z"
		/>
	<path class="st2" d="M111.6,74.3V33.6h7.9v33.6H138v7.1H111.6z"/>
	<path class="st2" d="M167.1,70c-3.3,3.4-7.1,4.6-11.5,4.6c-4.5,0-8.1-1.6-11-4.5c-4.1-4.1-4-9.2-4-16.2c0-7-0.1-12.1,4-16.2
		c2.9-2.9,6.4-4.5,11-4.5c9.4,0,14.2,6.2,15.3,13h-8c-0.9-3.8-3.3-5.9-7.3-5.9c-2.2,0-3.9,0.9-5.1,2.2c-1.5,1.7-1.9,3.6-1.9,11.4
		c0,7.8,0.4,9.8,1.9,11.5c1.1,1.3,2.9,2.1,5.1,2.1c2.4,0,4.3-0.9,5.7-2.3c1.3-1.5,1.8-3.3,1.8-5.4v-1.5h-7.5v-6.6H171v5.9
		C171,63.5,169.9,67.1,167.1,70z"/>
	<path class="st2" d="M201.7,70.2c-2.9,2.9-6.3,4.5-11,4.5c-4.6,0-8.2-1.6-11-4.5c-4.1-4.1-4-9.2-4-16.2c0-7-0.1-12.1,4-16.2
		c2.9-2.9,6.4-4.5,11-4.5c4.6,0,8.1,1.6,11,4.5c4.1,4.1,4.1,9.2,4.1,16.2C205.7,61,205.8,66.1,201.7,70.2z M195.8,42.5
		c-1.1-1.3-2.9-2.2-5.1-2.2c-2.2,0-4,0.9-5.1,2.2c-1.5,1.7-1.9,3.6-1.9,11.4c0,7.8,0.4,9.7,1.9,11.4c1.1,1.3,3,2.2,5.1,2.2
		c2.2,0,3.9-0.9,5.1-2.2c1.5-1.7,2-3.6,2-11.4C197.8,46.1,197.3,44.3,195.8,42.5z"/>
	<path class="st5" d="M212.8,74.3V33.6h7.9v33.6h18.5v7.1H212.8z"/>
	<path class="st5" d="M287.8,70.2c-2.9,2.9-6.3,4.5-11,4.5s-8.2-1.6-11-4.5c-4.1-4.1-4-9.2-4-16.2c0-7-0.1-12.1,4-16.2
		c2.9-2.9,6.4-4.5,11-4.5s8.1,1.6,11,4.5c4.1,4.1,4.1,9.2,4.1,16.2C291.9,61,291.9,66.1,287.8,70.2z M281.9,42.5
		c-1.1-1.3-2.9-2.2-5.1-2.2c-2.2,0-4,0.9-5.1,2.2c-1.5,1.7-1.9,3.6-1.9,11.4c0,7.8,0.4,9.7,1.9,11.4c1.1,1.3,3,2.2,5.1,2.2
		c2.2,0,3.9-0.9,5.1-2.2c1.5-1.7,2-3.6,2-11.4C283.9,46.1,283.5,44.3,281.9,42.5z"/>
	<path class="st5" d="M323.1,74.3l-16.1-25v25H299V33.6h7.1l16.1,24.9V33.6h7.9v40.7H323.1z"/>
	<g>
		<path class="st5" d="M245.9,39.5v-6.1h7.6v6.1H245.9z M246,74.3V44.5h7.4v29.8H246z"/>
	</g>
	<g>
		<path class="st2" d="M337.4,34.4c0-1.8,0.6-3.3,1.8-4.5c1.1-1.2,2.6-1.8,4.3-1.8c1.8,0,3.2,0.6,4.4,1.8c1.2,1.2,1.8,2.7,1.8,4.5
			c0,1.8-0.6,3.3-1.8,4.5c-1.2,1.2-2.6,1.9-4.4,1.9c-1.7,0-3.2-0.6-4.3-1.9C338,37.7,337.4,36.2,337.4,34.4z M338.7,34.4
			c0,1.5,0.5,2.7,1.4,3.6c0.9,1,2,1.5,3.4,1.5c1.4,0,2.6-0.5,3.5-1.5c0.9-0.9,1.4-2.1,1.4-3.6c0-1.5-0.5-2.8-1.4-3.7
			c-0.9-0.9-2.1-1.4-3.5-1.4c-1.4,0-2.6,0.5-3.4,1.4C339.2,31.6,338.7,32.8,338.7,34.4z M341.2,30.5h2.7c1.6,0,2.5,0.7,2.5,2.2
			c0,0.7-0.2,1.3-0.5,1.6c-0.4,0.3-0.8,0.5-1.3,0.6l2.1,3.1h-1.4l-2.1-3h-0.7v3h-1.2V30.5z M342.4,33.7h0.9c0.5,0,1,0,1.3-0.2
			c0.4-0.1,0.6-0.4,0.6-0.9c0-0.4-0.2-0.7-0.5-0.9c-0.3-0.1-0.7-0.2-1.1-0.2h-1.1V33.7z"/>
	</g>
	<path class="st3" d="M41.2,33.4l-3.7-6.2l-5,3l-3-5l-6.2,3.7l3,4.9c-1.9,1.6-3.6,3.4-4.9,5.6c0.5,0.3,6.1,3.5,6.4,3.7
		c0.7-1,1.5-2,2.5-2.8l2.9,4.7l6.2-3.7l-3-5L41.2,33.4z"/>
</g>
</svg>
