<svg width="20" height="23" viewBox="0 0 20 23" fill="none" xmlns="http://www.w3.org/2000/svg">
<path d="M19.25 3.45166C19.25 1.68994 14.9102 0.271973 9.625 0.271973C4.29688 0.271973 0 1.68994 0 3.45166V5.38525C0 7.14697 4.29688 8.52197 9.625 8.52197C14.9102 8.52197 19.25 7.14697 19.25 5.38525V3.45166ZM19.25 7.83447C17.1445 9.29541 13.3633 9.93994 9.625 9.93994C5.84375 9.93994 2.0625 9.29541 0 7.83447V12.2603C0 14.022 4.29688 15.397 9.625 15.397C14.9102 15.397 19.25 14.022 19.25 12.2603V7.83447ZM19.25 14.7095C17.1445 16.1704 13.3633 16.8149 9.625 16.8149C5.84375 16.8149 2.0625 16.1704 0 14.7095V19.1353C0 20.897 4.29688 22.272 9.625 22.272C14.9102 22.272 19.25 20.897 19.25 19.1353V14.7095Z" fill="white" />
</svg>
