<svg width="24" height="18" viewBox="0 0 24 18" fill="none" xmlns="http://www.w3.org/2000/svg">
<path d="M15.5625 12H17.3906C17.6719 12 18 11.7188 18 11.4375V5.10938C18 4.82812 17.6719 4.5 17.3906 4.5H15.5625C15.2812 4.5 15 4.82812 15 5.10938V11.4375C15 11.7188 15.2812 12 15.5625 12ZM20.0625 12H21.8906C22.1719 12 22.5 11.7188 22.5 11.4375V0.609375C22.5 0.328125 22.1719 0 21.8906 0H20.0625C19.7812 0 19.5 0.328125 19.5 0.609375V11.4375C19.5 11.7188 19.7812 12 20.0625 12ZM6.5625 12H8.39062C8.67188 12 9 11.7188 9 11.4375V8.10938C9 7.82812 8.67188 7.5 8.39062 7.5H6.5625C6.28125 7.5 6 7.82812 6 8.10938V11.4375C6 11.7188 6.28125 12 6.5625 12ZM11.0625 12H12.8906C13.1719 12 13.5 11.7188 13.5 11.4375V2.10938C13.5 1.82812 13.1719 1.5 12.8906 1.5H11.0625C10.7812 1.5 10.5 1.82812 10.5 2.10938V11.4375C10.5 11.7188 10.7812 12 11.0625 12ZM23.25 15H3V0.75C3 0.375 2.625 0 2.25 0H0.75C0.328125 0 0 0.375 0 0.75V16.5C0 17.3438 0.65625 18 1.5 18H23.25C23.625 18 24 17.6719 24 17.25V15.75C24 15.375 23.625 15 23.25 15Z" fill="#FFFFFF" />
</svg>
