<svg width="34" height="34" viewBox="0 0 34 34" fill="none" xmlns="http://www.w3.org/2000/svg">
<path fill-rule="evenodd" clip-rule="evenodd" d="M17 34C26.3888 34 34 26.3888 34 17C34 7.61116 26.3888 0 17 0C7.61116 0 0 7.61116 0 17C0 26.3888 7.61116 34 17 34ZM17.7618 13.875H22.1137C22.789 13.875 23.2392 14.7773 22.864 15.4219L16.2611 28.4844C16.111 28.8281 15.8109 29 15.4733 29C14.9105 29 14.4978 28.3984 14.6104 27.7539L16.3361 19.375H11.9092C11.3465 19.375 10.9338 18.8594 11.0088 18.2148L12.2093 7.90234C12.2469 7.38672 12.6595 7 13.1097 7H18.5121C19.0748 7 19.525 7.64453 19.375 8.33203L17.7618 13.875Z" fill="#B61615"/>
</svg>
