<svg width="34" height="35" viewBox="0 0 34 35" fill="none" xmlns="http://www.w3.org/2000/svg">
<path d="M34 17.2188C34 7.89617 26.3226 0.21875 17 0.21875C7.60887 0.21875 0 7.89617 0 17.2188C0 26.6099 7.60887 34.2188 17 34.2188C26.3226 34.2188 34 26.6099 34 17.2188ZM15.0121 26.2671C14.6008 26.6784 13.8468 26.6784 13.4355 26.2671L6.30645 19.1381C5.89516 18.7268 5.89516 17.9728 6.30645 17.5615L7.88306 16.0534C8.29435 15.5736 8.97984 15.5736 9.39113 16.0534L14.2581 20.8518L24.5403 10.5696C24.9516 10.0897 25.6371 10.0897 26.0484 10.5696L27.625 12.0776C28.0363 12.4889 28.0363 13.2429 27.625 13.6542L15.0121 26.2671Z" fill="#38C976"/>
</svg>
