<svg width="13" height="24" viewBox="0 0 13 24" fill="none" xmlns="http://www.w3.org/2000/svg">
<path d="M10 18C10 16.9219 9.39062 15.9375 8.5 15.4219V10.5C8.5 9.70312 7.79688 9 7 9C6.15625 9 5.5 9.70312 5.5 10.5V15.4219C4.5625 15.9375 4 16.9219 4 18C4 19.6875 5.3125 21 7 21C8.64062 21 10 19.6875 10 18ZM11.5 14.0625V4.5C11.5 2.01562 9.48438 0 7 0C4.46875 0 2.5 2.01562 2.5 4.5V14.0625C1.5625 15.0938 1 16.5 1 18C0.953125 21.2812 3.625 24 6.95312 24C6.95312 24 6.95312 24 7 24C10.2812 24 13 21.3281 13 18C13 16.5 12.3906 15.0938 11.5 14.0625ZM10.75 18C10.75 20.1094 9.0625 21.75 7 21.75H6.95312C4.89062 21.75 3.20312 20.0625 3.25 18C3.25 16.4062 4.14062 15.5625 4.75 14.9062V4.5C4.75 3.28125 5.73438 2.25 7 2.25C8.21875 2.25 9.25 3.28125 9.25 4.5V14.9062C9.8125 15.5625 10.75 16.4062 10.75 18Z" fill="#F9A646"/>
</svg>
