<svg width="34" height="32" viewBox="0 0 34 32" fill="none" xmlns="http://www.w3.org/2000/svg">
<path d="M33.6308 27.5593L19.4518 1.47773C18.3884 -0.461181 15.6116 -0.523727 14.5482 1.47773L0.369174 27.5593C-0.694254 29.4982 0.664571 32 2.8505 32H31.1495C33.3354 32 34.6942 29.5607 33.6308 27.5593ZM17.0295 22.1178C18.5065 22.1178 19.7472 23.4312 19.7472 24.9949C19.7472 26.6211 18.5065 27.872 17.0295 27.872C15.4935 27.872 14.3119 26.6211 14.3119 24.9949C14.3119 23.4312 15.4935 22.1178 17.0295 22.1178ZM14.43 11.5C14.371 11.0622 14.7254 10.6869 15.139 10.6869H18.861C19.2746 10.6869 19.629 11.0622 19.57 11.5L19.1564 20.304C19.0973 20.7418 18.8019 20.992 18.4474 20.992H15.5526C15.1981 20.992 14.9027 20.7418 14.8436 20.304L14.43 11.5Z" fill="#FBBF25"/>
</svg>
