<svg width="18" height="24" viewBox="0 0 18 24" fill="none" xmlns="http://www.w3.org/2000/svg">
<path d="M15.75 3H12C12 1.35938 10.6406 0 9 0C7.3125 0 6 1.35938 6 3H2.25C0.984375 3 0 4.03125 0 5.25V21.75C0 23.0156 0.984375 24 2.25 24H15.75C16.9688 24 18 23.0156 18 21.75V5.25C18 4.03125 16.9688 3 15.75 3ZM4.5 19.875C3.84375 19.875 3.375 19.4062 3.375 18.75C3.375 18.1406 3.84375 17.625 4.5 17.625C5.10938 17.625 5.625 18.1406 5.625 18.75C5.625 19.4062 5.10938 19.875 4.5 19.875ZM4.5 15.375C3.84375 15.375 3.375 14.9062 3.375 14.25C3.375 13.6406 3.84375 13.125 4.5 13.125C5.10938 13.125 5.625 13.6406 5.625 14.25C5.625 14.9062 5.10938 15.375 4.5 15.375ZM4.5 10.875C3.84375 10.875 3.375 10.4062 3.375 9.75C3.375 9.14062 3.84375 8.625 4.5 8.625C5.10938 8.625 5.625 9.14062 5.625 9.75C5.625 10.4062 5.10938 10.875 4.5 10.875ZM9 1.875C9.60938 1.875 10.125 2.39062 10.125 3C10.125 3.65625 9.60938 4.125 9 4.125C8.34375 4.125 7.875 3.65625 7.875 3C7.875 2.39062 8.34375 1.875 9 1.875ZM15 19.125C15 19.3594 14.8125 19.5 14.625 19.5H7.875C7.64062 19.5 7.5 19.3594 7.5 19.125V18.375C7.5 18.1875 7.64062 18 7.875 18H14.625C14.8125 18 15 18.1875 15 18.375V19.125ZM15 14.625C15 14.8594 14.8125 15 14.625 15H7.875C7.64062 15 7.5 14.8594 7.5 14.625V13.875C7.5 13.6875 7.64062 13.5 7.875 13.5H14.625C14.8125 13.5 15 13.6875 15 13.875V14.625ZM15 10.125C15 10.3594 14.8125 10.5 14.625 10.5H7.875C7.64062 10.5 7.5 10.3594 7.5 10.125V9.375C7.5 9.1875 7.64062 9 7.875 9H14.625C14.8125 9 15 9.1875 15 9.375V10.125Z" fill="#FFFFFF" />
</svg>
